<svg width="21" height="41" viewBox="0 0 21 41" fill="none" xmlns="http://www.w3.org/2000/svg">
<path d="M20.9929 20.5322C20.9943 21.2152 20.7503 21.8772 20.3033 22.4032L5.31101 39.9439C4.80206 40.5409 4.0707 40.9164 3.27783 40.9876C2.48496 41.0589 1.69553 40.8202 1.0832 40.3239C0.470862 39.8277 0.0857894 39.1147 0.012688 38.3416C-0.0604134 37.5686 0.184444 36.7989 0.693397 36.2019L14.1265 20.5322L1.17315 4.86244C0.924082 4.5634 0.738083 4.21932 0.625846 3.84998C0.513609 3.48063 0.477346 3.0933 0.519142 2.71024C0.560938 2.32719 0.679967 1.95596 0.86939 1.6179C1.05881 1.27984 1.3149 0.981615 1.62292 0.740364C1.93122 0.472634 2.29292 0.26987 2.68533 0.144768C3.07775 0.0196654 3.49244 -0.0250717 3.90342 0.0133514C4.31439 0.0517746 4.7128 0.172527 5.07369 0.368057C5.43457 0.563587 5.75015 0.829681 6.00065 1.14965L20.4832 18.6904C20.8595 19.2315 21.039 19.8799 20.9929 20.5322Z" fill="black"/>
</svg>
