<svg width="21" height="41" viewBox="0 0 21 41" fill="none" xmlns="http://www.w3.org/2000/svg">
<path d="M0.00709513 20.4678C0.0057263 19.7848 0.249725 19.1228 0.696737 18.5968L15.689 1.0561C16.1979 0.459087 16.9293 0.0836436 17.7222 0.0123706C18.515 -0.0589024 19.3045 0.179832 19.9168 0.676055C20.5291 1.17228 20.9142 1.88534 20.9873 2.65838C21.0604 3.43142 20.8156 4.20111 20.3066 4.79813L6.87355 20.4678L19.8268 36.1376C20.0759 36.4366 20.2619 36.7807 20.3742 37.15C20.4864 37.5194 20.5227 37.9067 20.4809 38.2898C20.4391 38.6728 20.32 39.044 20.1306 39.3821C19.9412 39.7202 19.6851 40.0184 19.3771 40.2596C19.0688 40.5274 18.7071 40.7301 18.3147 40.8552C17.9222 40.9803 17.5076 41.0251 17.0966 40.9867C16.6856 40.9482 16.2872 40.8275 15.9263 40.6319C15.5654 40.4364 15.2498 40.1703 14.9993 39.8503L0.516832 22.3096C0.140478 21.7685 -0.0389936 21.1201 0.00709513 20.4678V20.4678Z" fill="black"/>
</svg>
